<svg width="4405" height="1535" xmlns="http://www.w3.org/2000/svg" xmlns:xlink="http://www.w3.org/1999/xlink" xml:space="preserve" overflow="hidden"><defs><clipPath id="clip0"><rect x="-2" y="428" width="4405" height="1535"/></clipPath></defs><g clip-path="url(#clip0)" transform="translate(2 -428)"><rect x="0.499836" y="958.5" width="4400" height="627" stroke="#2F528F" stroke-width="4.58333" stroke-miterlimit="8" fill="#4472C4"/><rect x="162.5" y="958.5" width="424" height="627" stroke="#AE5A21" stroke-width="4.58333" stroke-miterlimit="8" fill="#ED7D31"/><text fill="#FFFFFF" font-family="DengXian,DengXian_MSFontService,sans-serif" font-weight="400" font-size="83" transform="matrix(1 0 0 1 214.926 1299)">LinkList<tspan font-size="83" x="280.156" y="0">L</tspan><tspan fill="#000000" font-size="83" x="63.3065" y="-768">NULL</tspan></text><rect x="893.5" y="958.5" width="424" height="627" stroke="#507E32" stroke-width="4.58333" stroke-miterlimit="8" fill="#70AD47"/><text fill="#FFFFFF" font-family="DengXian,DengXian_MSFontService,sans-serif" font-weight="400" font-size="83" transform="matrix(1 0 0 1 928.738 1299)">LinkList<tspan font-size="83" x="280.156" y="0">*L</tspan></text><path d="M360.251 958.054 360.25 699.75 387.75 699.75 387.751 958.054ZM332.75 713.5 374 631 415.25 713.5Z" fill="#ED7D31"/><path d="M1091.08 959.76 1090.58 955.885 1091.53 959.443 1089.91 955.568 1091.18 957.92 1088.61 954.108 1089.9 955.736 1086.4 951.924 1087.64 953.116 1083.14 949.304 1084.16 950.089 1078.78 946.339 1079.66 946.905 1073.41 943.218 1074.04 943.564 1066.97 939.876 1067.71 940.232 1059.77 936.67 1060.15 936.834 1051.53 933.271 1052.04 933.472 1042.67 930.035 1043.05 930.17 1032.93 926.795 1033.3 926.912 1022.55 923.662 1022.83 923.745 1011.4 920.558 1011.69 920.636 999.689 917.573 999.958 917.639 987.396 914.702 987.584 914.744 974.459 911.869 974.729 911.925 961.166 909.238 961.384 909.279 947.259 906.717 947.434 906.747 932.934 904.31 933.102 904.337 918.227 902.024 918.449 902.057 903.136 899.932 903.401 899.966 871.901 896.216 872.267 896.255 839.642 893.255 840.002 893.283 806.627 891.096 806.97 891.114 773.032 889.739 773.388 889.749 739.138 889.249 739.54 889.249 705.352 889.749 705.708 889.739 671.77 891.114 672.111 891.096 638.674 893.283 639.035 893.255 606.41 896.255 606.777 896.216 575.277 899.966 575.541 899.932 560.229 902.057 560.451 902.024 545.576 904.337 545.743 904.31 531.243 906.747 531.418 906.717 517.293 909.279 517.511 909.238 503.949 911.925 504.218 911.869 491.093 914.744 491.282 914.702 478.719 917.639 478.989 917.573 466.989 920.636 467.28 920.558 455.843 923.745 458.272 922.813 437.843 932.968 425.602 908.343 447.201 897.606 460.043 894.027 472.323 890.893 485.115 887.902 498.469 884.977 512.275 882.241 526.597 879.643 541.268 877.176 556.337 874.834 571.893 872.675 603.709 868.887 636.698 865.854 670.486 863.643 704.772 862.254 739.339 861.749 773.968 862.254 808.254 863.643 841.981 865.854 874.969 868.887 906.784 872.675 922.34 874.834 937.41 877.176 952.081 879.643 966.402 882.241 980.209 884.977 993.563 887.902 1006.35 890.893 1018.63 894.027 1030.36 897.295 1041.44 900.645 1051.94 904.145 1061.77 907.748 1070.84 911.496 1079.34 915.31 1087.08 919.352 1094.09 923.486 1100.42 927.905 1106.07 932.691 1110.86 937.905 1114.75 943.694 1117.61 950.522 1118.35 956.241ZM465.674 947.82 374 958.001 420.86 878.553Z" fill="#70AD47"/><rect x="2153.5" y="958.5" width="680" height="627" stroke="#BC8C00" stroke-width="4.58333" stroke-miterlimit="8" fill="#FFC000"/><text fill="#FFFFFF" font-family="DengXian,DengXian_MSFontService,sans-serif" font-weight="400" font-size="83" transform="matrix(1 0 0 1 2288.92 1299)">Head Node</text><path d="M2506.75 1585 2506.75 1728.39 2479.25 1728.39 2479.25 1585ZM2534.25 1714.64 2493 1797.14 2451.75 1714.64Z" fill="#FFC000"/><text font-family="DengXian,DengXian_MSFontService,sans-serif" font-weight="400" font-size="83" transform="matrix(1 0 0 1 2397.21 1891)">NULL</text></g></svg>