<svg width="4405" height="1351" xmlns="http://www.w3.org/2000/svg" xmlns:xlink="http://www.w3.org/1999/xlink" xml:space="preserve" overflow="hidden"><defs><clipPath id="clip0"><rect x="-2" y="612" width="4405" height="1351"/></clipPath></defs><g clip-path="url(#clip0)" transform="translate(2 -612)"><rect x="0.499836" y="958.5" width="4400" height="627" stroke="#2F528F" stroke-width="4.58333" stroke-miterlimit="8" fill="#4472C4"/><rect x="162.5" y="958.5" width="424" height="627" stroke="#AE5A21" stroke-width="4.58333" stroke-miterlimit="8" fill="#ED7D31"/><text fill="#FFFFFF" font-family="DengXian,DengXian_MSFontService,sans-serif" font-weight="400" font-size="83" transform="matrix(1 0 0 1 214.926 1299)">LinkList<tspan font-size="83" x="280.156" y="0">L</tspan></text><rect x="893.5" y="958.5" width="424" height="627" stroke="#507E32" stroke-width="4.58333" stroke-miterlimit="8" fill="#70AD47"/><text fill="#FFFFFF" font-family="DengXian,DengXian_MSFontService,sans-serif" font-weight="400" font-size="83" transform="matrix(1 0 0 1 928.738 1299)">LinkList<tspan font-size="83" x="280.156" y="0">*L</tspan></text><path d="M1091.08 959.76 1090.58 955.885 1091.53 959.443 1089.91 955.568 1091.18 957.92 1088.61 954.108 1089.9 955.736 1086.4 951.924 1087.64 953.116 1083.14 949.304 1084.16 950.089 1078.78 946.339 1079.66 946.905 1073.41 943.218 1074.04 943.564 1066.97 939.876 1067.71 940.232 1059.77 936.67 1060.15 936.834 1051.53 933.271 1052.04 933.472 1042.67 930.035 1043.05 930.17 1032.93 926.795 1033.3 926.912 1022.55 923.662 1022.83 923.745 1011.4 920.558 1011.69 920.636 999.689 917.573 999.958 917.639 987.396 914.702 987.584 914.744 974.459 911.869 974.729 911.925 961.166 909.238 961.384 909.279 947.259 906.717 947.434 906.747 932.934 904.31 933.102 904.337 918.227 902.024 918.449 902.057 903.136 899.932 903.401 899.966 871.901 896.216 872.267 896.255 839.642 893.255 840.002 893.283 806.627 891.096 806.97 891.114 773.032 889.739 773.388 889.749 739.138 889.249 739.54 889.249 705.352 889.749 705.708 889.739 671.77 891.114 672.111 891.096 638.674 893.283 639.035 893.255 606.41 896.255 606.777 896.216 575.277 899.966 575.541 899.932 560.229 902.057 560.451 902.024 545.576 904.337 545.743 904.31 531.243 906.747 531.418 906.717 517.293 909.279 517.511 909.238 503.949 911.925 504.218 911.869 491.093 914.744 491.282 914.702 478.719 917.639 478.989 917.573 466.989 920.636 467.28 920.558 455.843 923.745 458.272 922.813 437.843 932.968 425.602 908.343 447.201 897.606 460.043 894.027 472.323 890.893 485.115 887.902 498.469 884.977 512.275 882.241 526.597 879.643 541.268 877.176 556.337 874.834 571.893 872.675 603.709 868.887 636.698 865.854 670.486 863.643 704.772 862.254 739.339 861.749 773.968 862.254 808.254 863.643 841.981 865.854 874.969 868.887 906.784 872.675 922.34 874.834 937.41 877.176 952.081 879.643 966.402 882.241 980.209 884.977 993.563 887.902 1006.35 890.893 1018.63 894.027 1030.36 897.295 1041.44 900.645 1051.94 904.145 1061.77 907.748 1070.84 911.496 1079.34 915.31 1087.08 919.352 1094.09 923.486 1100.42 927.905 1106.07 932.691 1110.86 937.905 1114.75 943.694 1117.61 950.522 1118.35 956.241ZM465.674 947.82 374 958.001 420.86 878.553Z" fill="#70AD47"/><rect x="2153.5" y="958.5" width="680" height="627" stroke="#BC8C00" stroke-width="4.58333" stroke-miterlimit="8" fill="#FFC000"/><text fill="#FFFFFF" font-family="DengXian,DengXian_MSFontService,sans-serif" font-weight="400" font-size="83" transform="matrix(1 0 0 1 2288.92 1299)">Head Node</text><path d="M2506.75 1585 2506.75 1728.39 2479.25 1728.39 2479.25 1585ZM2534.25 1714.64 2493 1797.14 2451.75 1714.64Z" fill="#FFC000"/><text font-family="DengXian,DengXian_MSFontService,sans-serif" font-weight="400" font-size="83" transform="matrix(1 0 0 1 2397.21 1891)">NULL</text><path d="M354.596 955.936 357.617 942.72 360.886 929.258 364.719 915.682 369.196 901.987 374.736 888.17 381.395 874.519 385.373 867.523 389.652 860.664 394.39 853.894 399.481 847.195 405.077 840.453 411.133 833.859 417.703 827.289 424.848 820.812 432.472 814.448 440.653 808.18 449.478 801.923 458.93 795.819 468.98 789.815 479.724 783.925 491.099 778.044 503.328 772.285 516.157 766.704 529.792 761.135 544.246 755.699 559.515 750.355 575.616 745.051 592.599 739.579 610.607 733.975 629.461 728.319 649.137 722.535 669.694 716.752 690.965 710.916 713.011 705.012 735.751 699.17 759.165 693.333 783.144 687.557 807.683 681.846 832.772 676.201 858.321 670.615 884.319 665.214 910.777 659.935 964.617 649.957 1019.62 640.791 1075.39 632.563 1131.58 625.524 1187.88 619.806 1216.03 617.538 1244.03 615.588 1271.94 614.076 1299.66 613.068 1327.19 612.438 1354.44 612.312 1381.98 612.69 1410.45 613.509 1439.65 614.831 1469.65 616.591 1500.25 618.791 1531.4 621.366 1563.1 624.378 1595.19 627.644 1660.21 635.294 1726.04 644.072 1791.92 653.85 1857.32 664.436 1889.61 669.953 1921.51 675.594 1953.02 681.421 1983.97 687.247 2014.32 693.203 2043.95 699.219 2072.9 705.234 2100.99 711.253 2128.14 717.272 2154.29 723.229 2179.39 729.128 2203.31 734.966 2226.04 740.681 2247.43 746.278 2267.48 751.747 2276.95 754.401 2286.21 757.083 2303.63 762.525 2319.98 768.405 2335.17 774.571 2349.28 781.104 2362.25 787.917 2374.21 794.949 2385.24 802.216 2395.34 809.659 2404.59 817.306 2413 824.991 2420.67 832.862 2427.59 840.786 2433.74 848.612 2439.36 856.44 2444.39 864.218 2448.86 871.811 2452.79 879.093 2452.32 878.287 2459.81 890.167 2436.56 904.843 2428.81 892.568 2424.78 885.094 2425.02 885.529 2420.83 878.404 2421.14 878.903 2416.45 871.653 2416.83 872.206 2411.58 864.894 2411.94 865.374 2406.19 858.062 2406.64 858.604 2400.2 851.229 2400.71 851.783 2393.59 844.471 2394.17 845.031 2386.29 837.843 2386.8 838.282 2378.11 831.094 2378.72 831.569 2369.22 824.569 2369.81 824.983 2359.37 818.108 2359.97 818.478 2348.59 811.791 2349.17 812.11 2336.79 805.61 2337.41 805.915 2323.91 799.665 2324.52 799.928 2309.89 793.99 2310.41 794.188 2294.6 788.501 2295.15 788.687 2278.15 783.374 2278.42 783.457 2269.36 780.832 2269.48 780.866 2260.11 778.241 2260.19 778.265 2240.26 772.828 2240.39 772.864 2219.14 767.302 2219.27 767.335 2196.65 761.648 2196.74 761.67 2172.93 755.858 2173.04 755.885 2148.04 750.01 2148.13 750.031 2122.07 744.094 2122.15 744.111 2095.09 738.111 2095.18 738.132 2067.18 732.132 2067.27 732.15 2038.39 726.15 2038.45 726.163 2008.89 720.163 2008.98 720.18 1978.73 714.242 1978.83 714.263 1947.96 708.45 1948 708.458 1916.56 702.646 1916.67 702.665 1884.86 697.04 1884.93 697.053 1852.75 691.553 1852.87 691.573 1787.62 681.011 1787.79 681.038 1722.11 671.288 1722.31 671.317 1656.68 662.567 1656.89 662.593 1592.08 654.968 1592.3 654.992 1560.36 651.742 1560.45 651.751 1528.89 648.751 1529.05 648.766 1498.05 646.203 1498.2 646.215 1467.76 644.027 1467.94 644.039 1438.13 642.289 1438.32 642.298 1409.32 640.986 1409.54 640.994 1381.29 640.182 1381.5 640.186 1354.19 639.811 1354.44 639.812 1327.44 639.937 1327.69 639.934 1300.38 640.559 1300.56 640.553 1273.06 641.553 1273.31 641.542 1245.62 643.042 1245.83 643.029 1218.02 644.967 1218.17 644.956 1190.23 647.206 1190.51 647.18 1134.51 652.867 1134.83 652.831 1078.96 659.831 1079.26 659.79 1023.76 667.978 1024.01 667.938 969.261 677.063 969.505 677.02 915.88 686.957 916.066 686.922 889.753 692.172 889.859 692.15 863.984 697.525 864.125 697.495 838.688 703.057 838.768 703.04 813.768 708.665 813.867 708.642 789.429 714.33 789.532 714.305 765.657 720.055 765.764 720.029 742.452 725.841 742.547 725.818 719.922 731.63 720.057 731.594 698.12 737.469 698.2 737.448 677.013 743.26 677.099 743.236 656.662 748.986 656.815 748.942 637.253 754.692 637.326 754.67 618.576 760.295 618.711 760.254 600.836 765.816 600.967 765.775 584.092 771.212 584.177 771.185 568.24 776.435 568.48 776.353 553.48 781.603 553.778 781.495 539.653 786.807 540.012 786.667 526.699 792.104 526.985 791.984 514.485 797.421 514.858 797.252 503.046 802.815 503.503 802.589 492.503 808.276 492.797 808.12 482.422 813.807 482.864 813.554 473.239 819.304 473.647 819.05 464.647 824.863 465.14 824.529 456.765 830.467 457.175 830.165 449.425 836.102 449.874 835.743 442.687 841.743 443.11 841.375 436.423 847.437 436.91 846.973 430.785 853.098 431.19 852.676 425.565 858.801 426.018 858.282 420.831 864.532 421.197 864.07 416.447 870.32 416.765 869.885 412.39 876.135 412.792 875.527 408.854 881.84 409.14 881.359 405.515 887.734 405.921 886.966 399.671 899.778 400.075 898.867 394.887 911.805 395.194 910.96 390.944 923.96 391.108 923.423 387.42 936.485 387.549 935.995 384.362 949.12 384.404 948.939 381.404 962.064ZM2475.66 863.804 2485 955.567 2405.98 907.982Z" fill="#ED7D31"/></g></svg>