<svg width="4405" height="1351" xmlns="http://www.w3.org/2000/svg" xmlns:xlink="http://www.w3.org/1999/xlink" xml:space="preserve" overflow="hidden"><defs><clipPath id="clip0"><rect x="-2" y="612" width="4405" height="1351"/></clipPath></defs><g clip-path="url(#clip0)" transform="translate(2 -612)"><rect x="0.499836" y="958.5" width="4400" height="627" stroke="#2F528F" stroke-width="4.58333" stroke-miterlimit="8" fill="#4472C4"/><rect x="162.5" y="958.5" width="424" height="627" stroke="#AE5A21" stroke-width="4.58333" stroke-miterlimit="8" fill="#ED7D31"/><text fill="#FFFFFF" font-family="DengXian,DengXian_MSFontService,sans-serif" font-weight="400" font-size="83" transform="matrix(1 0 0 1 214.926 1299)">LinkList<tspan font-size="83" x="280.156" y="0">L</tspan></text><rect x="2153.5" y="958.5" width="680" height="627" stroke="#BC8C00" stroke-width="4.58333" stroke-miterlimit="8" fill="#FFC000"/><text fill="#FFFFFF" font-family="DengXian,DengXian_MSFontService,sans-serif" font-weight="400" font-size="83" transform="matrix(1 0 0 1 2288.92 1299)">Head Node<tspan fill="#000000" font-size="83" x="108.281" y="592">NULL</tspan></text><path d="M354.596 955.936 357.617 942.72 360.886 929.258 364.719 915.682 369.196 901.987 374.736 888.17 381.395 874.519 385.373 867.523 389.652 860.664 394.39 853.894 399.481 847.195 405.077 840.453 411.133 833.859 417.703 827.289 424.848 820.812 432.472 814.448 440.653 808.18 449.478 801.923 458.93 795.819 468.98 789.815 479.724 783.925 491.099 778.044 503.328 772.285 516.157 766.704 529.792 761.135 544.246 755.699 559.515 750.355 575.616 745.051 592.599 739.579 610.607 733.975 629.461 728.319 649.137 722.535 669.694 716.752 690.965 710.916 713.011 705.012 735.751 699.17 759.165 693.333 783.144 687.557 807.683 681.846 832.772 676.201 858.321 670.615 884.319 665.214 910.777 659.935 964.617 649.957 1019.62 640.791 1075.39 632.563 1131.58 625.524 1187.88 619.806 1216.03 617.538 1244.03 615.588 1271.94 614.076 1299.66 613.068 1327.19 612.438 1354.44 612.312 1381.98 612.69 1410.45 613.509 1439.65 614.831 1469.65 616.591 1500.25 618.791 1531.4 621.366 1563.1 624.378 1595.19 627.644 1660.21 635.294 1726.04 644.072 1791.92 653.85 1857.32 664.436 1889.61 669.953 1921.51 675.594 1953.02 681.421 1983.97 687.247 2014.32 693.203 2043.95 699.219 2072.9 705.234 2100.99 711.253 2128.14 717.272 2154.29 723.229 2179.39 729.128 2203.31 734.966 2226.04 740.681 2247.43 746.278 2267.48 751.747 2276.95 754.401 2286.21 757.083 2303.63 762.525 2319.98 768.405 2335.17 774.571 2349.28 781.104 2362.25 787.917 2374.21 794.949 2385.24 802.216 2395.34 809.659 2404.59 817.306 2413 824.991 2420.67 832.862 2427.59 840.786 2433.74 848.612 2439.36 856.44 2444.39 864.218 2448.86 871.811 2452.79 879.093 2452.32 878.287 2459.81 890.167 2436.56 904.843 2428.81 892.568 2424.78 885.094 2425.02 885.529 2420.83 878.404 2421.14 878.903 2416.45 871.653 2416.83 872.206 2411.58 864.894 2411.94 865.374 2406.19 858.062 2406.64 858.604 2400.2 851.229 2400.71 851.783 2393.59 844.471 2394.17 845.031 2386.29 837.843 2386.8 838.282 2378.11 831.094 2378.72 831.569 2369.22 824.569 2369.81 824.983 2359.37 818.108 2359.97 818.478 2348.59 811.791 2349.17 812.11 2336.79 805.61 2337.41 805.915 2323.91 799.665 2324.52 799.928 2309.89 793.99 2310.41 794.188 2294.6 788.501 2295.15 788.687 2278.15 783.374 2278.42 783.457 2269.36 780.832 2269.48 780.866 2260.11 778.241 2260.19 778.265 2240.26 772.828 2240.39 772.864 2219.14 767.302 2219.27 767.335 2196.65 761.648 2196.74 761.67 2172.93 755.858 2173.04 755.885 2148.04 750.01 2148.13 750.031 2122.07 744.094 2122.15 744.111 2095.09 738.111 2095.18 738.132 2067.18 732.132 2067.27 732.15 2038.39 726.15 2038.45 726.163 2008.89 720.163 2008.98 720.18 1978.73 714.242 1978.83 714.263 1947.96 708.45 1948 708.458 1916.56 702.646 1916.67 702.665 1884.86 697.04 1884.93 697.053 1852.75 691.553 1852.87 691.573 1787.62 681.011 1787.79 681.038 1722.11 671.288 1722.31 671.317 1656.68 662.567 1656.89 662.593 1592.08 654.968 1592.3 654.992 1560.36 651.742 1560.45 651.751 1528.89 648.751 1529.05 648.766 1498.05 646.203 1498.2 646.215 1467.76 644.027 1467.94 644.039 1438.13 642.289 1438.32 642.298 1409.32 640.986 1409.54 640.994 1381.29 640.182 1381.5 640.186 1354.19 639.811 1354.44 639.812 1327.44 639.937 1327.69 639.934 1300.38 640.559 1300.56 640.553 1273.06 641.553 1273.31 641.542 1245.62 643.042 1245.83 643.029 1218.02 644.967 1218.17 644.956 1190.23 647.206 1190.51 647.18 1134.51 652.867 1134.83 652.831 1078.96 659.831 1079.26 659.79 1023.76 667.978 1024.01 667.938 969.261 677.063 969.505 677.02 915.88 686.957 916.066 686.922 889.753 692.172 889.859 692.15 863.984 697.525 864.125 697.495 838.688 703.057 838.768 703.04 813.768 708.665 813.867 708.642 789.429 714.33 789.532 714.305 765.657 720.055 765.764 720.029 742.452 725.841 742.547 725.818 719.922 731.63 720.057 731.594 698.12 737.469 698.2 737.448 677.013 743.26 677.099 743.236 656.662 748.986 656.815 748.942 637.253 754.692 637.326 754.67 618.576 760.295 618.711 760.254 600.836 765.816 600.967 765.775 584.092 771.212 584.177 771.185 568.24 776.435 568.48 776.353 553.48 781.603 553.778 781.495 539.653 786.807 540.012 786.667 526.699 792.104 526.985 791.984 514.485 797.421 514.858 797.252 503.046 802.815 503.503 802.589 492.503 808.276 492.797 808.12 482.422 813.807 482.864 813.554 473.239 819.304 473.647 819.05 464.647 824.863 465.14 824.529 456.765 830.467 457.175 830.165 449.425 836.102 449.874 835.743 442.687 841.743 443.11 841.375 436.423 847.437 436.91 846.973 430.785 853.098 431.19 852.676 425.565 858.801 426.018 858.282 420.831 864.532 421.197 864.07 416.447 870.32 416.765 869.885 412.39 876.135 412.792 875.527 408.854 881.84 409.14 881.359 405.515 887.734 405.921 886.966 399.671 899.778 400.075 898.867 394.887 911.805 395.194 910.96 390.944 923.96 391.108 923.423 387.42 936.485 387.549 935.995 384.362 949.12 384.404 948.939 381.404 962.064ZM2475.66 863.804 2485 955.567 2405.98 907.982Z" fill="#ED7D31"/><rect x="714.5" y="958.5" width="424" height="627" stroke="#41719C" stroke-width="4.58333" stroke-miterlimit="8" fill="#5B9BD5"/><text fill="#FFFFFF" font-family="DengXian,DengXian_MSFontService,sans-serif" font-weight="400" font-size="83" transform="matrix(1 0 0 1 843.661 1249)">参数<tspan font-size="83" x="-76.7708" y="99">LinkList</tspan><tspan font-size="83" x="203.385" y="99">L</tspan></text><path d="M2.18945 13.5746 0.251946 13.8871 3.37999 12.9927 1.44249 13.8052 4.31789 12.1676 2.38039 13.6051 3.91022 12.2852 1.97272 14.2227 3.25 12.75 1.375 15.25 1.92554 14.4597-0.0119588 17.4597 0.516651 16.5694-1.42085 20.1319-1.01556 19.3245-2.89056 23.387-2.74585 23.0626-4.68335 27.5626-4.41846 26.9006-6.29346 31.9631-6.15782 31.5795-8.03282 37.142-7.9384 36.8513-9.8134 42.8513-9.73607 42.5951-11.6111 49.0326-11.509 48.6632-13.3215 55.6007-13.2989 55.513-15.1739 62.888-15.1057 62.6075-16.9182 70.42-16.8828 70.263-18.6953 78.513-18.6458 78.2777-20.3958 86.9652-22.2045 96.0091-22.165 95.8035-23.915 105.303-23.8985 105.212-25.6485 115.087-25.6201 114.921-27.3076 125.171-27.2952 125.094-28.9827 135.719-28.9697 135.636-30.6572 146.698-30.6345 146.544-33.8845 169.606-33.8655 169.466-37.053 193.903-37.0377 193.782-40.1627 219.532-40.1435 219.366-43.081 246.303-43.0713 246.211-45.9463 274.336-45.9332 274.201-48.6207 303.326-48.6118 303.225-51.1743 333.413-51.167 333.324-53.6045 364.449-53.5983 364.366-55.9108 396.366-55.9039 396.265-58.0289 429.015-58.0245 428.946-60.0245 462.383-60.0181 462.267-61.7681 496.392-61.7651 496.331-63.3901 531.018-63.3865 530.936-64.824 566.124-64.821 566.045-66.071 601.67-66.0678 601.569-67.0678 637.569-67.0652 637.459-68.5027 710.209-68.5003 710.031-69.0003 783.344-69.0007 783.11-68.2507 856.797-68.2525 856.678-66.8775 929.428-66.8803 929.306-65.8803 965.306-65.8826 965.229-64.6951 1000.85-64.6989 1000.75-63.2614 1036-63.2639 1035.94-61.7014 1070.63-61.7069 1070.52-59.8944 1104.65-59.8979 1104.58-57.9604 1138.08-57.9664 1137.98-55.8414 1170.73-55.8483 1170.63-53.5358 1202.63-53.542 1202.55-51.1045 1233.68-51.1118 1233.59-48.5493 1263.77-48.5579 1263.68-45.8704 1292.86-45.8838 1292.73-43.0088 1320.85-43.0185 1320.76-40.081 1347.7-40.0962 1347.56-37.0337 1373.31-37.053 1373.16-33.8655 1397.6-33.8845 1397.46-30.6345 1420.52-30.659 1420.35-28.9715 1431.35-28.9808 1431.29-27.2933 1441.98-27.3211 1441.81-25.5711 1452.06-23.884 1461.93-23.915 1461.76-22.165 1471.26-22.2045 1471.05-20.392 1480.12-20.8423 1478.43-13.8123 1499.33-39.8778 1508.1-47.1865 1486.37-49.191 1476.34-50.9761 1466.65-52.6789 1456.69-54.4433 1446.35-56.1489 1435.55-57.8537 1424.44-61.1253 1401.22-64.3321 1376.64-67.4117 1350.74-70.3615 1323.69-73.2483 1295.45-75.9466 1266.15-78.517 1235.87-80.9613 1204.66-83.2804 1172.57-85.4118 1139.72-87.3539 1106.14-89.1711 1071.92-90.7374 1037.15-92.1782 1001.82-93.3686 966.107-94.3714 930.008-95.7487 857.137-96.5005 783.273-95.9991 709.755-94.5587 636.861-93.5558 600.755-92.3027 565.041-90.8619 529.773-89.2335 495.014-87.479 460.8-85.4734 427.269-83.3429 394.434-81.0238 362.343-78.5795 331.132-76.009 300.849-73.3106 271.607-70.424 243.368-67.4724 216.301-64.3299 190.407-61.1254 165.839-57.8546 142.629-56.1489 131.447-54.4487 120.742-52.7412 110.371-50.9684 100.367-49.191 90.7186-47.3542 81.5348-45.5805 72.7295-43.7249 64.2834-41.8616 56.2519-39.9399 48.6931-38.0675 41.5264-36.1015 34.7764-34.141 28.5028-32.1522 22.6027-30.0827 17.015-27.9339 12.0243-25.7951 7.39012-23.3941 2.97551-20.9141-0.864513-18.1637-4.53174-14.8189-7.87651-10.7294-10.9106-5.74425-13.0012-2.18945-13.5746ZM5.76114 1474.95 0.000360892 1567.01-70.1894 1507.16Z" fill="#5B9BD5" transform="matrix(1.83697e-16 1 1 -1.83697e-16 926 958)"/><rect x="3045.5" y="958.5" width="680" height="627" stroke="#BC8C00" stroke-width="4.58333" stroke-miterlimit="8" fill="#FFC000"/><text fill="#FFFFFF" font-family="DengXian,DengXian_MSFontService,sans-serif" font-weight="400" font-size="83" transform="matrix(1 0 0 1 3253.19 1299)">Node 1</text><path d="M3398.89 1585 3398.89 1877.54 2691.75 1877.54 2691.75 1850.04 3385.14 1850.04 3371.39 1863.79 3371.39 1585ZM2705.5 1905.04 2623 1863.79 2705.5 1822.54Z" fill="#FFC000"/><path d="M2506.74 1585.09 2507.05 1593.65 2506.98 1592.66 2507.92 1601.22 2507.76 1600.13 2509.38 1608.63 2509.21 1607.86 2511.33 1616.29 2511.06 1615.36 2513.81 1623.74 2513.56 1623.02 2516.81 1631.33 2516.48 1630.57 2520.29 1638.82 2519.9 1638.03 2524.27 1646.09 2523.95 1645.52 2528.76 1653.46 2528.41 1652.92 2533.66 1660.73 2533.26 1660.17 2539.01 1667.85 2538.57 1667.3 2544.76 1674.73 2544.38 1674.3 2550.94 1681.55 2550.56 1681.14 2557.5 1688.2 2556.81 1687.56 2571.81 1700.87 2570.97 1700.18 2587.28 1712.49 2586.37 1711.85 2603.8 1722.92 2602.86 1722.37 2621.3 1732.12 2620.63 1731.79 2630.13 1736.16 2629.52 1735.9 2639.27 1739.84 2638.79 1739.66 2648.67 1743.22 2648.1 1743.03 2658.1 1746.15 2657.51 1745.98 2667.69 1748.67 2667.15 1748.54 2677.34 1750.79 2676.66 1750.66 2687.04 1752.41 2686.39 1752.31 2696.77 1753.56 2696.19 1753.51 2706.63 1754.32 2705.89 1754.28 2716.33 1754.53 2715.1 1754.56 2725.53 1753.87 2723.69 1754.12 2734.13 1751.99 2732.62 1752.39 2743 1749.01 2741.5 1749.6 2751.81 1744.85 2750.67 1745.44 2760.92 1739.5 2759.85 1740.19 2769.98 1733 2769.18 1733.61 2779.24 1725.3 2778.5 1725.96 2788.37 1716.52 2787.77 1717.14 2797.46 1706.64 2796.96 1707.21 2806.46 1695.71 2806.06 1696.22 2815.44 1683.72 2815.04 1684.28 2824.1 1670.84 2823.81 1671.28 2832.69 1656.97 2832.4 1657.46 2840.96 1642.28 2840.75 1642.67 2849.06 1626.73 2848.84 1627.16 2856.84 1610.41 2856.67 1610.79 2864.36 1593.36 2864.19 1593.76 2871.5 1575.63 2871.35 1576.01 2878.29 1557.26 2878.17 1557.6 2884.73 1538.29 2884.62 1538.62 2890.81 1518.8 2890.71 1519.16 2896.46 1498.85 2896.35 1499.23 2901.6 1478.41 2901.53 1478.73 2906.34 1457.54 2906.27 1457.89 2910.58 1436.39 2910.52 1436.73 2914.33 1414.85 2914.28 1415.18 2917.59 1393.05 2917.54 1393.41 2920.29 1371.1 2920.25 1371.48 2922.37 1348.98 2922.34 1349.33 2923.91 1326.71 2923.89 1327.05 2924.89 1304.3 2924.88 1304.71 2925.19 1281.9 2925.5 1258.96 2926.46 1235.82 2928.11 1212.77 2930.27 1189.92 2933.06 1167.25 2936.36 1144.79 2940.23 1122.56 2944.62 1100.72 2949.51 1079.17 2954.91 1058.08 2960.75 1037.38 2966.98 1017.22 2973.67 997.535 2980.81 978.425 2988.26 959.95 2996.06 942.112 3004.26 925.01 3012.79 908.586 3021.66 892.964 3030.76 878.182 3040.23 864.242 3049.94 851.206 3059.97 839.152 3070.19 828.074 3080.72 818.008 3091.5 809.044 3102.64 801.188 3114.01 794.603 3125.6 789.332 3137.49 785.393 3149.6 782.999 3161.55 782.141 3172.93 782.414 3183.94 783.139 3194.9 784.327 3205.78 785.977 3216.57 788.082 3227.23 790.582 3237.8 793.536 3248.28 796.851 3268.32 804.491 3287.69 813.614 3306.02 823.933 3323.22 835.463 3338.99 847.882 3346.48 854.633 3353.47 861.485 3361.15 869.706 3370.72 888.13 3346.31 900.806 3337.61 884.053 3339.76 887.101 3333.58 880.476 3334 880.906 3327.43 874.469 3327.86 874.869 3320.92 868.619 3321.62 869.205 3306.62 857.393 3307.47 858.011 3291.15 847.073 3292.07 847.636 3274.63 837.823 3275.51 838.279 3257.08 829.591 3258.04 830.001 3238.85 822.689 3239.6 822.95 3229.73 819.825 3230.17 819.958 3220.11 817.145 3220.67 817.289 3210.55 814.915 3211.05 815.023 3200.8 813.023 3201.38 813.123 3191.06 811.56 3191.64 811.635 3181.27 810.51 3181.85 810.561 3171.41 809.873 3171.98 809.899 3161.55 809.649 3162.86 809.617 3152.42 810.367 3154.1 810.142 3143.67 812.205 3145.32 811.768 3134.95 815.205 3136.31 814.67 3126 819.358 3127.2 818.738 3116.95 824.676 3117.99 824.013 3107.8 831.201 3108.66 830.539 3098.66 838.852 3099.37 838.218 3089.5 847.656 3090.11 847.039 3080.42 857.539 3080.88 857.007 3071.32 868.507 3071.78 867.93 3062.46 880.43 3062.81 879.94 3053.69 893.377 3054.02 892.862 3045.21 907.175 3045.46 906.755 3036.83 921.943 3037.08 921.492 3028.76 937.492 3028.96 937.097 3020.96 953.784 3021.16 953.349 3013.54 970.787 3013.69 970.422 3006.38 988.547 3006.51 988.212 2999.51 1006.96 2999.64 1006.58 2993.08 1025.89 2993.2 1025.53 2987.07 1045.34 2987.17 1045.01 2981.42 1065.39 2981.51 1065.06 2976.2 1085.81 2976.28 1085.45 2971.47 1106.64 2971.54 1106.29 2967.23 1127.79 2967.3 1127.45 2963.48 1149.33 2963.54 1148.96 2960.29 1171.09 2960.33 1170.77 2957.58 1193.08 2957.63 1192.7 2955.5 1215.2 2955.53 1214.89 2953.9 1237.57 2953.93 1237.16 2952.99 1259.91 2953 1259.53 2952.69 1282.28 2952.37 1305.3 2951.35 1328.43 2949.77 1351.4 2947.61 1374.27 2944.81 1396.95 2941.45 1419.41 2937.58 1441.62 2933.2 1463.47 2928.31 1484.98 2922.97 1506.15 2917.12 1526.83 2910.82 1546.98 2904.15 1566.63 2897.08 1585.74 2889.61 1604.25 2881.75 1622.08 2873.55 1639.23 2865.02 1655.59 2856.21 1671.22 2847.05 1686 2837.64 1699.94 2827.87 1712.97 2817.92 1725.01 2807.69 1736.11 2797.14 1746.19 2786.31 1755.14 2775.25 1762.98 2763.9 1769.56 2752.27 1774.92 2740.38 1778.78 2728.27 1781.25 2716.29 1782.04 2704.86 1781.77 2693.77 1780.9 2682.78 1779.58 2671.75 1777.72 2660.95 1775.33 2650.19 1772.49 2639.61 1769.19 2629.22 1765.44 2618.92 1761.28 2608.78 1756.61 2589.53 1746.43 2571.16 1734.78 2553.97 1721.8 2538.21 1707.81 2530.74 1700.21 2523.8 1692.54 2517.2 1684.61 2511.03 1676.36 2505.41 1667.99 2500.26 1659.5 2495.52 1650.76 2491.34 1641.73 2487.8 1632.68 2484.78 1623.48 2482.44 1614.19 2480.64 1604.76 2479.59 1595.15 2479.26 1586.09ZM3391.38 865.998 3384.79 958 3315.14 897.526Z" fill="#FFC000"/></g></svg>